<?xml version="1.0" encoding="utf-8"?>
<!-- Generator: Adobe Illustrator 23.0.0, SVG Export Plug-In . SVG Version: 6.00 Build 0)  -->
<svg version="1.1" id="Layer_1" xmlns="http://www.w3.org/2000/svg" xmlns:xlink="http://www.w3.org/1999/xlink" x="0px" y="0px"
     viewBox="0 0 512 512" style="enable-background:new 0 0 512 512;" xml:space="preserve">
<style type="text/css">
	.st0{fill:#FFFFFF;}
</style>
<g>
	<path class="st0" d="M472,26H40c-7.8,0-14,6.3-14,14V472c0,7.8,6.3,14,14,14H472c7.8,0,14-6.3,14-14V40C486,32.3,479.7,26,472,26z
		 M457.9,242H270V54.1h187.9V242z M54.1,54.1H242V242H54.1V54.1z M54.1,270H242v187.9H54.1V270z M457.9,457.9H270V270h187.9V457.9z"
		/>
	<path class="st0" d="M364,338.4c8.4,0,15.3-6.9,15.3-15.3c0-8.5-6.8-15.3-15.3-15.3c-8.4,0-15.3,6.8-15.3,15.3
		C348.7,331.5,355.5,338.4,364,338.4z"/>
	<path class="st0" d="M364,389.6c-8.4,0-15.3,6.9-15.3,15.3c0,8.4,6.8,15.3,15.3,15.3c8.4,0,15.3-6.9,15.3-15.3
		C379.3,396.4,372.4,389.6,364,389.6z"/>
	<path class="st0" d="M325.5,378h76.9c7.8,0,14-6.3,14-14c0-7.8-6.3-14-14-14h-76.9c-7.8,0-14,6.3-14,14
		C311.5,371.7,317.8,378,325.5,378z"/>
	<path class="st0" d="M325.3,162.1h77.4c7.8,0,14-6.3,14-14c0-7.8-6.3-14-14-14h-77.4c-7.8,0-14,6.3-14,14
		C311.2,155.8,317.5,162.1,325.3,162.1z"/>
	<path class="st0" d="M186.7,134h-24.6v-24.6c0-7.8-6.3-14-14-14c-7.8,0-14,6.3-14,14V134h-24.6c-7.8,0-14,6.3-14,14s6.3,14,14,14
		H134v24.6c0,7.8,6.3,14,14,14c7.8,0,14-6.3,14-14v-24.6h24.7c7.8,0,14-6.3,14-14S194.5,134,186.7,134z"/>
	<path class="st0" d="M167.9,364l17.4-17.4c5.5-5.5,5.5-14.4,0-19.9s-14.4-5.5-19.9,0L148,344.1l-17.4-17.4
		c-5.5-5.5-14.4-5.5-19.9,0s-5.5,14.4,0,19.9l17.4,17.4l-17.4,17.4c-5.5,5.5-5.5,14.4,0,19.9c2.7,2.7,6.3,4.1,9.9,4.1
		s7.2-1.4,9.9-4.1l17.4-17.4l17.4,17.4c2.7,2.7,6.3,4.1,9.9,4.1c3.6,0,7.2-1.4,9.9-4.1c5.5-5.5,5.5-14.4,0-19.9L167.9,364z"/>
</g>
</svg>
